HIERARCHY
ROOT Hip
{
	OFFSET 0 1.131 0.0052
	CHANNELS 6 Xposition Yposition Zposition Xrotation Yrotation Zrotation
	JOINT Abdomen
	{
		OFFSET 0 -0.047353 -0.05
		CHANNELS 3 Xrotation Zrotation Yrotation
		JOINT Chest
		{
			OFFSET 0 0.132153 0.007439
			CHANNELS 3 Xrotation Zrotation Yrotation
			JOINT Neck
			{
				OFFSET 0 0.3078 0.006161
				CHANNELS 3 Xrotation Zrotation Yrotation
				JOINT Head_comp
				{
					OFFSET 0 0.0884 0.013
					CHANNELS 3 Xrotation Yrotation Zrotation
					End Site
					{
						OFFSET -0 0.156 0.0624
					}
				}
			}
			JOINT Left_Collar
			{
				OFFSET 0.02282 0.250342 0.017193
				CHANNELS 2 Yrotation Zrotation
				JOINT Left_Shoulder
				{
					OFFSET 0.15421 0 0
					CHANNELS 3 Xrotation Yrotation Zrotation
					JOINT Left_Forearm
					{
						OFFSET 0.265212 0 0
						CHANNELS 2 Yrotation Xrotation
						JOINT Left_Hand
						{
							OFFSET 0.27571 0 0
							CHANNELS 2 Zrotation Yrotation
							JOINT L1ProxPhalanx
							{
								OFFSET 0.014142 0.001733 0.014142
								CHANNELS 3 Yrotation Zrotation Xrotation
								JOINT L1MidPhalanx
								{
									OFFSET 0.04 0 0
									CHANNELS 1 Zrotation
									JOINT L1DistPhalanx
									{
										OFFSET 0.035 0 0
										CHANNELS 1 Zrotation
										End Site
										{
											OFFSET 0.029 -0 -0
										}
									}
								}
							}
							JOINT L2ProxPhalanx
							{
								OFFSET 0.0821037 0.001578 0.0219996
								CHANNELS 2 Yrotation Zrotation
								JOINT L2MidPhalanx
								{
									OFFSET 0.04 0 0
									CHANNELS 1 Zrotation
									JOINT L2DistPhalanx
									{
										OFFSET 0.028 0 0
										CHANNELS 1 Zrotation
										End Site
										{
											OFFSET 0.02 -0 -0
										}
									}
								}
							}
							JOINT L3ProxPhalanx
							{
								OFFSET 0.083 0 0
								CHANNELS 2 Yrotation Zrotation
								JOINT L3MidPhalanx
								{
									OFFSET 0.053 0 0
									CHANNELS 1 Zrotation
									JOINT L3DistPhalanx
									{
										OFFSET 0.03 0 0
										CHANNELS 1 Zrotation
										End Site
										{
											OFFSET 0.023 -0 -0
										}
									}
								}
							}
							JOINT L4ProxPhalanx
							{
								OFFSET 0.077274 -0.000761 -0.0207055
								CHANNELS 2 Yrotation Zrotation
								JOINT L4MidPhalanx
								{
									OFFSET 0.05 0 0
									CHANNELS 1 Zrotation
									JOINT L4DistPhalanx
									{
										OFFSET 0.03 0 0
										CHANNELS 1 Zrotation
										End Site
										{
											OFFSET 0.023 -0 -0
										}
									}
								}
							}
							JOINT L5ProxPhalanx
							{
								OFFSET 0.0675499 -0.001644 -0.039
								CHANNELS 2 Yrotation Zrotation
								JOINT L5MidPhalanx
								{
									OFFSET 0.04 0 0
									CHANNELS 1 Zrotation
									JOINT L5DistPhalanx
									{
										OFFSET 0.021 0 0
										CHANNELS 1 Zrotation
										End Site
										{
											OFFSET 0.022 -0 -0
										}
									}
								}
							}
						}
					}
				}
			}
			JOINT Right_Collar
			{
				OFFSET -0.02282 0.250342 0.017193
				CHANNELS 2 Yrotation Zrotation
				JOINT Right_Shoulder
				{
					OFFSET -0.15421 0 0
					CHANNELS 3 Xrotation Yrotation Zrotation
					JOINT Right_Forearm
					{
						OFFSET -0.265212 0 0
						CHANNELS 2 Yrotation Xrotation
						JOINT Right_Hand
						{
							OFFSET -0.27571 3e-006 0
							CHANNELS 2 Zrotation Yrotation
							JOINT R1ProxPhalanx
							{
								OFFSET -0.014142 0.001733 0.014142
								CHANNELS 3 Yrotation Zrotation Xrotation
								JOINT R1MidPhalanx
								{
									OFFSET -0.04 0 0
									CHANNELS 1 Zrotation
									JOINT R1DistPhalanx
									{
										OFFSET -0.035 0 0
										CHANNELS 1 Zrotation
										End Site
										{
											OFFSET -0.029 -0 -0
										}
									}
								}
							}
							JOINT R2ProxPhalanx
							{
								OFFSET -0.0821037 0.001578 0.0219996
								CHANNELS 2 Yrotation Zrotation
								JOINT R2MidPhalanx
								{
									OFFSET -0.04 0 0
									CHANNELS 1 Zrotation
									JOINT R2DistPhalanx
									{
										OFFSET -0.028 0 0
										CHANNELS 1 Zrotation
										End Site
										{
											OFFSET -0.02 -0 -0
										}
									}
								}
							}
							JOINT R3ProxPhalanx
							{
								OFFSET -0.083 0 0
								CHANNELS 2 Yrotation Zrotation
								JOINT R3MidPhalanx
								{
									OFFSET -0.053 0 0
									CHANNELS 1 Zrotation
									JOINT R3DistPhalanx
									{
										OFFSET -0.03 0 0
										CHANNELS 1 Zrotation
										End Site
										{
											OFFSET -0.023 -0 -0
										}
									}
								}
							}
							JOINT R4ProxPhalanx
							{
								OFFSET -0.077274 -0.000761 -0.0207055
								CHANNELS 2 Yrotation Zrotation
								JOINT R4MidPhalanx
								{
									OFFSET -0.05 0 0
									CHANNELS 1 Zrotation
									JOINT R4DistPhalanx
									{
										OFFSET -0.03 0 0
										CHANNELS 1 Zrotation
										End Site
										{
											OFFSET -0.023 -0 -0
										}
									}
								}
							}
							JOINT R5ProxPhalanx
							{
								OFFSET -0.0675499 -0.001644 -0.039
								CHANNELS 2 Yrotation Zrotation
								JOINT R5MidPhalanx
								{
									OFFSET -0.04 0 0
									CHANNELS 1 Zrotation
									JOINT R5DistPhalanx
									{
										OFFSET -0.021 0 0
										CHANNELS 1 Zrotation
										End Site
										{
											OFFSET -0.022 -0 -0
										}
									}
								}
							}
						}
					}
				}
			}
		}
	}
	JOINT Left_Thigh
	{
		OFFSET 0.1118 -0.1612 -0.0442
		CHANNELS 3 Xrotation Zrotation Yrotation
		JOINT Left_Shin
		{
			OFFSET 0 -0.477856 0
			CHANNELS 1 Xrotation
			JOINT Left_Foot
			{
				OFFSET 0 -0.431952 0
				CHANNELS 2 Xrotation Zrotation
				JOINT Left_Toe
				{
					OFFSET 0 -0.0442 0.119
					CHANNELS 1 Xrotation
					End Site
					{
						OFFSET -0 -0 0.07
					}
				}
			}
		}
	}
	JOINT Right_Thigh
	{
		OFFSET -0.1118 -0.1612 -0.0442
		CHANNELS 3 Xrotation Zrotation Yrotation
		JOINT Right_Shin
		{
			OFFSET 0 -0.477856 0
			CHANNELS 1 Xrotation
			JOINT Right_Foot
			{
				OFFSET 0 -0.431952 0
				CHANNELS 2 Xrotation Zrotation
				JOINT Right_Toe
				{
					OFFSET 0 -0.0442 0.119
					CHANNELS 1 Xrotation
					End Site
					{
						OFFSET -0 -0 0.07
					}
				}
			}
		}
	}
}
MOTION
Frames: 9
Frame Time: 0.009975
-0.095228 -0.0601985 0.0490513 1.03411e-012 5.6465e-008 -5.10986e-006 0 0 0 0 0 0 0 0 0 0 0 0 0 0 -0 0 -0 0 0 0 0 -66.8006 -58.2592 87.5136 -6.37135 -3.25446 1.66335 -2.18108 1.1772 -0.837664 -0.10107 1.0881 -3.49172 -4.66376 0.116425 1.94496 -14.7703 -1.17834 9.70482 4.88968 -69.6672 43.2145 0 0 -0 0 -0 0 0 0 0 37.9386 28.008 73.698 26.2405 28.4472 13.118 18.2167 29.0248 19.6359 0 22.4358 32.6146 28.1246 -8.63175 30.7051 32.2053 23.7634 -7.83088 26.7354 35.1526 30.0193 0.621698 -1.04369 -0.0113246 0.0240216 -0.645617 1.04375 0 0.633105 -1.04368 -0.0115323 1.70755e-006 -0.633001 1.04375 0 
-0.095228 -0.0601985 0.0490513 1.03411e-012 5.6465e-008 -5.10986e-006 0 0 0 0 0 0 0 0 0 0 0 0 0 0 -0 0 -0 0 0 0 0 -66.8006 -58.2592 87.5136 -6.37135 -3.25446 1.66335 -2.18108 1.1772 -0.837664 -0.10107 1.0881 -3.49172 -4.66376 0.116425 1.94496 -14.7703 -1.17834 9.70482 4.88968 -69.6672 43.2145 0 0 -0 0 -0 0 0 0 0 37.9386 28.008 73.698 26.2405 28.4472 13.118 18.2167 29.0248 19.6359 0 22.4358 32.6146 28.1246 -8.63175 30.7051 32.2053 23.7634 -7.83088 26.7354 35.1526 30.0193 0.621698 -1.04369 -0.0113246 0.0240216 -0.645617 1.04375 0 0.633105 -1.04368 -0.0115323 1.70755e-006 -0.633001 1.04375 0 
-0.101405 -0.0600936 0.0477068 9.80096e-013 4.89021e-008 -5.08388e-006 0 -0 0 0 -0 0 0 -0 0 -0.710297 0.291057 -9.06606e-006 3.68325 -44.9481 -8.17832 -11.3141 -33.408 -44.9893 6.87621 28.2346 3.09256 -66.7364 -58.0906 87.492 -6.51449 -3.33819 1.6503 -2.32015 0.971313 -0.908476 -0.100578 0.922664 -3.67426 -4.73044 0.123159 1.77525 -14.8965 -1.26245 9.68668 4.74528 -69.4889 42.8984 -3.68325 44.9481 -8.17832 11.3141 33.408 44.9893 6.87621 -28.2346 -3.09256 66.7364 58.0906 87.492 6.51449 3.33819 -1.6503 2.32015 -0.971313 0.908476 0.100578 -0.922664 3.67426 4.73044 -0.123159 -1.77525 14.8965 1.26245 -9.68668 -4.74528 69.4889 -42.8984 0.537009 -0.654656 -0.00615132 0.0239015 -0.560876 0.65469 0 0.548358 -0.654654 -0.00628131 1.69901e-006 -0.548324 0.654689 0 
-0.10135 -0.0600934 0.0476725 9.85033e-013 4.91478e-008 -5.10942e-006 0 -0 0 0 -0 0 0 -0 0 -0.712674 0.291081 -1.13162e-010 3.70079 -45.1739 -7.29364 -11.1678 -28.4861 -47.2649 6.90895 28.3764 3.10778 -66.8006 -58.2592 87.5136 -6.37135 -3.25446 1.66335 -2.18108 1.1772 -0.837664 -0.10107 1.0881 -3.49172 -4.66376 0.116425 1.94496 -14.7703 -1.17834 9.70482 4.88968 -69.6672 43.2145 -3.70079 45.1739 -7.29364 11.1678 28.4861 47.2649 6.90895 -28.3764 -3.10778 66.8006 58.2592 87.5136 6.37135 3.25446 -1.66335 2.18108 -1.1772 0.837664 0.10107 -1.0881 3.49172 4.66376 -0.116425 -1.94496 14.7703 1.17834 -9.70482 -4.88968 69.6672 -43.2145 0.534796 -0.65811 -0.00614286 0.0240216 -0.558782 0.658144 0 0.546201 -0.658109 -0.00627386 1.70755e-006 -0.546168 0.658144 0 
-0.10135 -0.0600939 0.0477258 -7.83361e-014 4.87064e-008 -5.10943e-006 0 -0 0 0 -0 0 0 -0 0 -0.712686 0.291075 -9.78173e-015 3.70079 -45.1739 -7.28695 -11.1658 -28.451 -47.2803 6.90895 28.3764 3.10778 -66.8006 -58.2592 87.5136 -6.37135 -3.25446 1.66335 -2.18108 1.1772 -0.837664 -0.10107 1.0881 -3.49172 -4.66376 0.116425 1.94496 -14.7703 -1.17834 9.70482 4.88968 -69.6672 43.2145 -3.70079 45.1739 -7.28695 11.1658 28.451 47.2803 6.90895 -28.3764 -3.10778 66.8006 58.2592 87.5136 6.37135 3.25446 -1.66335 2.18108 -1.1772 0.837664 0.10107 -1.0881 3.49172 4.66376 -0.116425 -1.94496 14.7703 1.17834 -9.70482 -4.88968 69.6672 -43.2145 0.538151 -0.658114 -0.00618144 0.0240216 -0.562137 0.658148 0 0.549557 -0.658113 -0.00631245 2.41484e-008 -0.549521 0.658148 0 
-0.10135 -0.0600939 0.0477267 8.49555e-013 4.9012e-008 -5.10943e-006 0 -0 0 0 -0 0 0 -0 0 -0.712687 0.291076 -0 3.70079 -45.1739 -7.28695 -11.1658 -28.451 -47.2803 6.90895 28.3764 3.10778 -66.8006 -58.2592 87.5136 -6.37135 -3.25446 1.66335 -2.18108 1.1772 -0.837664 -0.10107 1.0881 -3.49172 -4.66376 0.116425 1.94496 -14.7703 -1.17834 9.70482 4.88968 -69.6672 43.2145 -3.70079 45.1739 -7.28695 11.1658 28.451 47.2803 6.90895 -28.3764 -3.10778 66.8006 58.2592 87.5136 6.37135 3.25446 -1.66335 2.18108 -1.1772 0.837664 0.10107 -1.0881 3.49172 4.66376 -0.116425 -1.94496 14.7703 1.17834 -9.70482 -4.88968 69.6672 -43.2145 0.53821 -0.658114 -0.00618212 0.0240216 -0.562196 0.658149 0 0.549616 -0.658113 -0.00631312 0 -0.549579 0.658149 0 
-0.10135 -0.0600939 0.0477267 6.75022e-013 4.90142e-008 -5.10943e-006 0 -0 0 0 -0 0 0 -0 0 -0.712688 0.291076 -0 3.70079 -45.1739 -7.28695 -11.1658 -28.451 -47.2803 6.90895 28.3764 3.10778 -66.8006 -58.2592 87.5136 -6.37135 -3.25446 1.66335 -2.18108 1.1772 -0.837664 -0.10107 1.0881 -3.49172 -4.66376 0.116425 1.94496 -14.7703 -1.17834 9.70482 4.88968 -69.6672 43.2145 -3.70079 45.1739 -7.28695 11.1658 28.451 47.2803 6.90895 -28.3764 -3.10778 66.8006 58.2592 87.5136 6.37135 3.25446 -1.66335 2.18108 -1.1772 0.837664 0.10107 -1.0881 3.49172 4.66376 -0.116425 -1.94496 14.7703 1.17834 -9.70482 -4.88968 69.6672 -43.2145 0.53821 -0.658114 -0.00618212 0.0240216 -0.562196 0.658149 0 0.549616 -0.658113 -0.00631313 2.37861e-006 -0.549582 0.658149 0 
-0.10135 -0.0600939 0.0477267 1.02075e-013 4.90142e-008 -5.10942e-006 0 -0 0 0 -0 0 0 -0 0 -0.712688 0.291076 -3.88256e-019 3.70079 -45.1739 -7.28695 -11.1658 -28.451 -47.2803 6.90895 28.3764 3.10778 -66.8006 -58.2592 87.5136 -6.37135 -3.25446 1.66335 -2.18108 1.1772 -0.837664 -0.10107 1.0881 -3.49172 -4.66376 0.116425 1.94496 -14.7703 -1.17834 9.70482 4.88968 -69.6672 43.2145 -3.70079 45.1739 -7.28695 11.1658 28.451 47.2803 6.90895 -28.3764 -3.10778 66.8006 58.2592 87.5136 6.37135 3.25446 -1.66335 2.18108 -1.1772 0.837664 0.10107 -1.0881 3.49172 4.66376 -0.116425 -1.94496 14.7703 1.17834 -9.70482 -4.88968 69.6672 -43.2145 0.538211 -0.658114 -0.00618212 0.0240216 -0.562197 0.658149 0 0.549616 -0.658113 -0.00631313 4.22596e-008 -0.54958 0.658149 0 
-0.10135 -0.0600939 0.0477267 1.06688e-012 4.90142e-008 -5.10943e-006 0 -0 0 0 -0 0 0 -0 0 -0.712688 0.291076 -0 3.70079 -45.1739 -7.28695 -11.1658 -28.451 -47.2803 6.90895 28.3764 3.10778 -66.8006 -58.2592 87.5136 -6.37135 -3.25446 1.66335 -2.18108 1.1772 -0.837664 -0.10107 1.0881 -3.49172 -4.66376 0.116425 1.94496 -14.7703 -1.17834 9.70482 4.88968 -69.6672 43.2145 -3.70079 45.1739 -7.28695 11.1658 28.451 47.2803 6.90895 -28.3764 -3.10778 66.8006 58.2592 87.5136 6.37135 3.25446 -1.66335 2.18108 -1.1772 0.837664 0.10107 -1.0881 3.49172 4.66376 -0.116425 -1.94496 14.7703 1.17834 -9.70482 -4.88968 69.6672 -43.2145 0.538211 -0.658114 -0.00618212 0.0240216 -0.562197 0.658149 0 0.549616 -0.658113 -0.00631313 0 -0.54958 0.658149 0 
